{
	"asset":{
		"generator":"Khronos glTF Blender I/O v5.1.18",
		"version":"2.0"
	},
	"extensionsUsed":[
		"KHR_lights_punctual"
	],
	"extensionsRequired":[
		"KHR_lights_punctual"
	],
	"extensions":{
		"KHR_lights_punctual":{
			"lights":[
				{
					"color":[
						1,
						1,
						1
					],
					"intensity":79.57747154594767,
					"type":"point",
					"name":"Light"
				},
				{
					"color":[
						1,
						1,
						1
					],
					"intensity":1.3295686683339611,
					"type":"directional",
					"name":"Sun"
				}
			]
		}
	},
	"scene":0,
	"scenes":[
		{
			"name":"Scene",
			"nodes":[
				0,
				3,
				4
			]
		}
	],
	"nodes":[
		{
			"extensions":{
				"KHR_lights_punctual":{
					"light":0
				}
			},
			"name":"Light",
			"rotation":[
				-0.28416627645492554,
				0.7269423007965088,
				0.34203392267227173,
				0.5232754945755005
			],
			"translation":[
				4.076245307922363,
				5.903861999511719,
				-1.0054539442062378
			]
		},
		{
			"mesh":0,
			"name":"bf109.001"
		},
		{
			"children":[
				1
			],
			"mesh":1,
			"name":"bf109",
			"rotation":[
				0.13730065524578094,
				0.24575801193714142,
				0.06703593581914902,
				0.9572135210037231
			],
			"scale":[
				0.10191473364830017,
				0.10191473364830017,
				0.10191472619771957
			],
			"translation":[
				1.1371138095855713,
				-0.028221964836120605,
				-3.959556818008423
			]
		},
		{
			"camera":0,
			"children":[
				2
			],
			"name":"Camera",
			"rotation":[
				-0.07315851747989655,
				0.6398494839668274,
				0.061388932168483734,
				0.7625430822372437
			],
			"translation":[
				2.849559783935547,
				0.7506163120269775,
				2.7035789489746094
			]
		},
		{
			"extensions":{
				"KHR_lights_punctual":{
					"light":1
				}
			},
			"name":"Sun",
			"rotation":[
				-0.560560405254364,
				-0.15742415189743042,
				0.17131711542606354,
				0.7947579026222229
			],
			"translation":[
				-0.6369197964668274,
				1.0441405773162842,
				0.15840429067611694
			]
		}
	],
	"cameras":[
		{
			"name":"Camera",
			"perspective":{
				"aspectRatio":1.7777777777777777,
				"yfov":0.6939551846210171,
				"zfar":100,
				"znear":0.10000000149011612
			},
			"type":"perspective"
		}
	],
	"animations":[
		{
			"channels":[
				{
					"sampler":0,
					"target":{
						"node":3,
						"path":"rotation"
					}
				}
			],
			"name":"CameraAction",
			"samplers":[
				{
					"input":9,
					"interpolation":"LINEAR",
					"output":10
				}
			]
		},
		{
			"channels":[
				{
					"sampler":0,
					"target":{
						"node":2,
						"path":"translation"
					}
				},
				{
					"sampler":1,
					"target":{
						"node":2,
						"path":"rotation"
					}
				}
			],
			"name":"bf109Action",
			"samplers":[
				{
					"input":9,
					"interpolation":"LINEAR",
					"output":11
				},
				{
					"input":9,
					"interpolation":"LINEAR",
					"output":12
				}
			]
		},
		{
			"channels":[
				{
					"sampler":0,
					"target":{
						"node":1,
						"path":"rotation"
					}
				}
			],
			"name":"bf109.001Action",
			"samplers":[
				{
					"input":9,
					"interpolation":"LINEAR",
					"output":13
				}
			]
		}
	],
	"materials":[
		{
			"alphaMode":"BLEND",
			"doubleSided":true,
			"name":"Material",
			"pbrMetallicRoughness":{
				"metallicFactor":0,
				"roughnessFactor":0.5
			}
		},
		{
			"alphaMode":"BLEND",
			"doubleSided":true,
			"name":"bf109",
			"pbrMetallicRoughness":{
				"baseColorTexture":{
					"index":0
				},
				"metallicFactor":0.294545441865921,
				"roughnessFactor":0.39454543590545654
			}
		}
	],
	"meshes":[
		{
			"name":"Cube.001",
			"primitives":[
				{
					"attributes":{
						"POSITION":0,
						"NORMAL":1,
						"TEXCOORD_0":2,
						"TANGENT":3
					},
					"indices":4,
					"material":0
				}
			]
		},
		{
			"name":"Cube.003",
			"primitives":[
				{
					"attributes":{
						"POSITION":5,
						"NORMAL":6,
						"TEXCOORD_0":7
					},
					"indices":8,
					"material":1
				}
			]
		}
	],
	"textures":[
		{
			"sampler":0,
			"source":0
		}
	],
	"images":[
		{
			"mimeType":"image/png",
			"name":"textebf.png",
			"uri":"../../u%C4%B1_elements/textures/textebf.png"
		}
	],
	"accessors":[
		{
			"bufferView":0,
			"componentType":5126,
			"count":4,
			"max":[
				-10.756731986999512,
				2.4273362159729004,
				2.5102083683013916
			],
			"min":[
				-10.75673770904541,
				-2.5930609703063965,
				-2.5101888179779053
			],
			"type":"VEC3"
		},
		{
			"bufferView":1,
			"componentType":5126,
			"count":4,
			"type":"VEC3"
		},
		{
			"bufferView":2,
			"componentType":5126,
			"count":4,
			"type":"VEC2"
		},
		{
			"bufferView":3,
			"componentType":5126,
			"count":4,
			"type":"VEC4"
		},
		{
			"bufferView":4,
			"componentType":5123,
			"count":6,
			"type":"SCALAR"
		},
		{
			"bufferView":5,
			"componentType":5126,
			"count":3184,
			"max":[
				14.617883682250977,
				4.280627727508545,
				14.668914794921875
			],
			"min":[
				-10.71744155883789,
				-1.5628098249435425,
				-14.668914794921875
			],
			"type":"VEC3"
		},
		{
			"bufferView":6,
			"componentType":5126,
			"count":3184,
			"type":"VEC3"
		},
		{
			"bufferView":7,
			"componentType":5126,
			"count":3184,
			"type":"VEC2"
		},
		{
			"bufferView":8,
			"componentType":5123,
			"count":5478,
			"type":"SCALAR"
		},
		{
			"bufferView":9,
			"componentType":5126,
			"count":250,
			"max":[
				10.416666666666666
			],
			"min":[
				0.041666666666666664
			],
			"type":"SCALAR"
		},
		{
			"bufferView":10,
			"componentType":5126,
			"count":250,
			"type":"VEC4"
		},
		{
			"bufferView":11,
			"componentType":5126,
			"count":250,
			"type":"VEC3"
		},
		{
			"bufferView":12,
			"componentType":5126,
			"count":250,
			"type":"VEC4"
		},
		{
			"bufferView":13,
			"componentType":5126,
			"count":250,
			"type":"VEC4"
		}
	],
	"bufferViews":[
		{
			"buffer":0,
			"byteLength":48,
			"byteOffset":0,
			"target":34962
		},
		{
			"buffer":0,
			"byteLength":48,
			"byteOffset":48,
			"target":34962
		},
		{
			"buffer":0,
			"byteLength":32,
			"byteOffset":96,
			"target":34962
		},
		{
			"buffer":0,
			"byteLength":64,
			"byteOffset":128,
			"target":34962
		},
		{
			"buffer":0,
			"byteLength":12,
			"byteOffset":192,
			"target":34963
		},
		{
			"buffer":0,
			"byteLength":38208,
			"byteOffset":204,
			"target":34962
		},
		{
			"buffer":0,
			"byteLength":38208,
			"byteOffset":38412,
			"target":34962
		},
		{
			"buffer":0,
			"byteLength":25472,
			"byteOffset":76620,
			"target":34962
		},
		{
			"buffer":0,
			"byteLength":10956,
			"byteOffset":102092,
			"target":34963
		},
		{
			"buffer":0,
			"byteLength":1000,
			"byteOffset":113048
		},
		{
			"buffer":0,
			"byteLength":4000,
			"byteOffset":114048
		},
		{
			"buffer":0,
			"byteLength":3000,
			"byteOffset":118048
		},
		{
			"buffer":0,
			"byteLength":4000,
			"byteOffset":121048
		},
		{
			"buffer":0,
			"byteLength":4000,
			"byteOffset":125048
		}
	],
	"samplers":[
		{
			"magFilter":9729,
			"minFilter":9987
		}
	],
	"buffers":[
		{
			"byteLength":129048,
			"uri":"background_animation-d6c253cd1c692691af27ff96923f7236.bin"
		}
	]
}
